<?xml version="1.0" standalone="no"?>
<!DOCTYPE svg PUBLIC "-//W3C//DTD SVG 20010904//EN"
 "http://www.w3.org/TR/2001/REC-SVG-20010904/DTD/svg10.dtd">
<svg version="1.0" xmlns="http://www.w3.org/2000/svg"
 width="225.000000pt" height="225.000000pt" viewBox="0 0 225.000000 225.000000"
 preserveAspectRatio="xMidYMid meet">

<g transform="translate(0.000000,225.000000) scale(0.100000,-0.100000)"
fill="#000000" stroke="none">
<path d="M7 2242 c-3 -4 -6 -179 -6 -388 l-1 -381 82 -31 c65 -23 106 -31 188
-36 58 -3 134 -9 170 -12 60 -5 68 -4 112 25 45 28 47 32 36 56 -6 13 -18 27
-27 30 -13 4 -16 19 -13 87 3 99 -3 128 -26 129 -10 0 -12 3 -4 6 6 2 12 11
12 19 0 9 5 12 10 9 6 -4 10 9 10 33 0 36 2 39 25 34 32 -6 35 -42 4 -42 -18
0 -19 -2 -9 -15 7 -8 16 -13 20 -10 4 3 11 -3 14 -12 6 -16 -16 -43 -34 -43
-3 0 -6 -16 -7 -35 -1 -35 4 -39 41 -35 11 1 15 -3 12 -9 -4 -6 -18 -11 -32
-11 -15 0 -24 -6 -24 -15 0 -8 6 -15 13 -15 8 0 9 -3 1 -8 -25 -16 13 -81 39
-65 6 3 7 1 4 -4 -10 -16 15 -31 51 -29 39 1 44 -21 6 -30 -17 -4 -29 -2 -35
7 -5 8 -9 9 -9 3 0 -6 -29 -30 -63 -54 -48 -32 -63 -48 -62 -64 1 -11 0 -13
-2 -4 -9 37 -32 43 -170 43 -73 0 -133 4 -133 9 0 4 -11 6 -25 4 -14 -3 -25
-1 -25 3 0 5 -7 9 -15 9 -8 0 -15 -6 -15 -13 0 -16 54 -67 71 -67 5 0 8 -4 5
-9 -6 -10 -76 19 -76 31 0 4 -7 8 -15 8 -14 0 -17 7 -19 52 -1 10 -5 18 -9 18
-4 0 -12 0 -18 0 -6 0 -8 -9 -4 -20 4 -12 2 -20 -5 -20 -7 0 -14 9 -17 20 -3
11 -12 20 -19 20 -12 0 -14 -52 -14 -304 0 -300 0 -305 21 -311 28 -9 87 3
129 27 l36 19 49 -24 c66 -32 106 -39 164 -26 56 12 89 39 97 78 3 16 18 34
35 44 17 9 28 21 25 26 -6 10 -54 3 -62 -10 -6 -11 -65 0 -84 16 -8 7 -22 15
-30 18 -8 3 9 6 38 6 63 1 116 21 132 51 9 16 14 19 25 10 11 -9 14 -6 18 12
3 16 5 12 6 -13 0 -19 7 -44 15 -54 12 -17 11 -23 -7 -47 -15 -20 -21 -45 -23
-100 -3 -108 13 -185 51 -243 34 -52 53 -97 38 -94 -18 4 -63 -21 -63 -35 0
-9 -9 -20 -19 -26 -11 -5 -22 -19 -26 -29 -3 -11 -16 -21 -28 -23 -12 -2 -26
-13 -32 -26 -5 -12 -15 -20 -21 -18 -7 3 -21 -4 -33 -15 -17 -16 -21 -17 -21
-4 0 8 5 15 10 15 6 0 10 9 10 20 0 11 5 20 10 20 6 0 10 5 10 10 0 6 19 28
41 50 28 26 39 45 35 55 -3 9 1 26 9 38 8 12 15 37 14 57 0 19 -3 28 -6 20 -3
-8 -11 -21 -16 -29 -6 -7 -12 -19 -13 -25 -2 -16 -52 -66 -64 -66 -6 0 -10 -5
-10 -12 0 -6 -3 -8 -6 -5 -4 4 -2 13 4 20 7 8 9 17 6 20 -9 9 -35 -20 -32 -35
2 -7 -3 -12 -10 -10 -6 1 -11 -2 -10 -7 2 -4 -8 -17 -22 -29 -21 -17 -23 -23
-13 -43 6 -13 23 -53 37 -89 21 -54 26 -61 32 -42 3 12 11 22 16 22 17 0 140
110 181 161 21 27 42 49 46 49 12 0 41 -72 41 -100 -2 -75 -10 -135 -20 -138
-6 -2 -16 -9 -23 -15 -6 -7 -31 -25 -55 -41 -23 -16 -41 -30 -40 -32 2 -1 19
1 38 6 19 4 29 8 23 9 -21 2 -14 21 7 21 11 0 20 4 20 9 0 5 14 14 30 21 17 7
30 16 30 20 0 4 10 12 23 19 54 29 71 41 59 41 -7 0 -24 -7 -38 -16 -13 -9
-27 -14 -30 -11 -3 2 11 15 31 27 20 12 37 21 39 19 2 -2 7 -12 12 -21 9 -16
13 -16 48 8 32 22 42 25 63 15 15 -7 22 -7 18 -1 -3 5 3 10 14 10 12 0 21 5
21 10 0 6 20 8 55 4 38 -5 55 -3 55 5 0 6 11 11 25 11 28 0 31 11 13 39 -9 15
-9 23 1 35 7 9 18 13 25 9 6 -4 5 1 -3 11 -12 15 -12 19 1 33 17 16 42 9 35
-10 -2 -7 2 -20 11 -30 8 -9 12 -20 8 -24 -4 -4 -11 -1 -15 6 -7 11 -12 9 -21
-9 -12 -22 -11 -22 21 -18 21 3 38 0 47 -8 11 -12 11 -14 -3 -14 -9 0 -30 -7
-47 -16 -24 -12 -28 -18 -17 -25 10 -6 11 -9 2 -10 -60 -7 -104 -36 -80 -51 7
-5 3 -8 -11 -8 -33 0 -70 -23 -126 -76 -6 -6 -17 -9 -24 -6 -8 2 -35 -2 -60
-9 -26 -7 -53 -12 -59 -11 -7 2 -13 -2 -13 -8 0 -7 -8 -9 -21 -5 -13 5 -19 3
-15 -3 3 -5 -1 -12 -8 -15 -8 -3 -17 -1 -19 6 -3 9 -10 9 -30 -2 -14 -7 -33
-11 -42 -7 -9 3 -23 -1 -31 -9 -18 -17 -49 -21 -38 -4 12 21 -79 -2 -114 -28
-39 -30 -46 -44 -38 -78 l6 -25 890 0 890 0 0 738 0 737 -33 23 c-18 12 -40
22 -48 22 -12 0 -12 2 1 10 10 6 11 10 3 10 -7 0 -13 6 -13 13 0 7 -19 20 -43
29 l-43 16 -16 -37 c-18 -39 -53 -81 -69 -81 -20 0 -49 21 -49 35 0 8 -4 15
-10 15 -15 0 -12 28 6 55 9 13 13 28 10 34 -8 12 47 31 90 31 25 0 34 4 35 18
0 12 3 10 11 -8 l11 -25 6 25 7 25 8 -25 c7 -24 8 -24 16 -5 7 16 9 16 9 4 1
-16 20 -29 42 -29 5 0 9 14 9 30 0 17 4 30 9 30 5 0 8 -16 7 -36 -1 -29 3 -38
22 -45 l22 -8 0 327 c0 215 -4 322 -10 312 -6 -10 -10 -11 -10 -2 0 9 -46 12
-194 12 -184 0 -194 -1 -207 -21 -15 -22 -49 -18 -49 7 0 11 -20 14 -95 14
l-95 0 3 -40 c3 -35 1 -40 -17 -41 -20 0 -20 -1 -2 -8 19 -7 19 -8 1 -14 -10
-4 -19 -6 -20 -5 -9 9 -12 69 -5 73 5 3 7 12 3 20 -7 19 -152 21 -172 3 -11
-10 -14 -10 -18 0 -5 14 -44 16 -58 3 -16 -14 -55 -23 -55 -12 0 5 10 12 22
14 13 3 -16 5 -64 5 -48 0 -85 -4 -82 -9 3 -5 -2 -9 -10 -9 -8 0 -17 4 -20 9
-3 5 -60 9 -126 10 -113 0 -120 -1 -120 -19 0 -20 -11 -26 -23 -13 -4 3 -2 12
4 20 10 11 -9 13 -110 13 l-121 0 0 -37 c0 -28 -3 -34 -10 -23 -9 13 -10 13
-10 0 0 -13 -2 -13 -9 -1 -7 11 -10 10 -14 -5 -2 -10 -5 0 -6 22 l-1 42 -192
-2 c-187 -1 -193 -2 -192 -21 0 -17 -5 -20 -33 -17 -28 4 -31 7 -22 23 9 18 6
19 -45 19 -30 0 -57 -3 -59 -8z m683 -17 c-7 -8 -9 -15 -6 -15 4 0 -2 -10 -14
-22 -15 -16 -23 -19 -31 -11 -13 13 -4 47 9 39 5 -3 18 1 28 9 25 19 29 19 14
0z m273 -23 c-7 -2 -14 -13 -14 -25 -2 -22 -2 -22 -6 0 -4 19 -8 21 -23 13
-13 -7 -21 -6 -29 4 -13 15 1 32 18 22 5 -3 14 1 21 8 10 13 14 12 28 -2 13
-12 14 -18 5 -20z m22 28 c-3 -5 -11 -10 -16 -10 -6 0 -7 5 -4 10 3 6 11 10
16 10 6 0 7 -4 4 -10z m1035 6 c0 -3 -4 -8 -10 -11 -5 -3 -10 -1 -10 4 0 6 5
11 10 11 6 0 10 -2 10 -4z m-905 -25 c-3 -5 -1 -12 3 -15 5 -3 8 -15 7 -28 -1
-18 -8 -24 -31 -25 -25 -2 -26 -1 -9 7 17 7 18 9 3 9 -10 1 -18 6 -18 11 0 6
8 10 18 11 9 0 12 3 5 6 -10 3 -10 7 0 18 13 16 31 20 22 6z m965 -68 c0 -42
-2 -74 -6 -71 -8 9 -10 148 -1 148 4 0 7 -34 7 -77z m157 15 c-2 -13 -4 -3 -4
22 0 25 2 35 4 23 2 -13 2 -33 0 -45z m-1957 42 c0 -5 -4 -10 -10 -10 -5 0
-10 5 -10 10 0 6 5 10 10 10 6 0 10 -4 10 -10z m1026 -11 c12 -19 -8 -49 -32
-49 -24 0 -31 20 -18 53 5 15 40 12 50 -4z m86 4 c-5 -10 -7 -24 -4 -32 3 -11
0 -12 -14 -6 -11 4 -25 8 -31 8 -33 1 6 46 40 47 14 0 16 -4 9 -17z m588 7 c0
-5 -5 -10 -11 -10 -5 0 -7 5 -4 10 3 6 8 10 11 10 2 0 4 -4 4 -10z m-1850 -30
c0 -5 -2 -10 -4 -10 -3 0 -8 5 -11 10 -3 6 -1 10 4 10 6 0 11 -4 11 -10z m715
0 c4 -6 11 -8 16 -4 6 4 9 -8 7 -32 -3 -43 -28 -60 -28 -20 0 16 -6 26 -15 26
-8 0 -15 9 -15 20 0 21 24 28 35 10z m1292 -12 c-3 -8 -6 -5 -6 6 -1 11 2 17
5 13 3 -3 4 -12 1 -19z m-1580 -30 c-3 -7 -5 -2 -5 12 0 14 2 19 5 13 2 -7 2
-19 0 -25z m380 -3 c-14 -15 -28 0 -20 22 4 10 9 11 19 2 10 -8 11 -14 1 -24z
m905 -5 c5 0 3 -7 -6 -15 -8 -8 -25 -15 -38 -15 l-23 1 25 14 c25 14 25 14 3
15 -28 0 -29 8 -5 26 14 11 18 10 26 -7 5 -10 13 -19 18 -19z m-1686 4 c-3 -8
-1 -14 4 -14 6 0 10 -6 10 -13 0 -9 -9 -12 -29 -9 -25 3 -29 8 -26 31 3 32 1
30 26 24 12 -3 18 -11 15 -19z m544 10 c0 -11 -5 -14 -16 -10 -9 3 -23 6 -32
7 -14 0 -13 2 3 9 31 13 45 11 45 -6z m700 -31 c0 -21 -42 -34 -59 -18 -12 12
-12 18 3 40 17 26 18 26 37 9 10 -9 19 -23 19 -31z m230 22 c0 -14 -4 -25 -9
-25 -5 0 -8 11 -8 25 0 14 3 25 8 25 5 0 9 -11 9 -25z m-1165 5 c3 -5 1 -10
-4 -10 -6 0 -11 5 -11 10 0 6 2 10 4 10 3 0 8 -4 11 -10z m1452 -15 c-7 -16
-47 -21 -47 -5 0 6 9 10 20 10 11 0 20 5 20 12 0 6 3 9 6 5 4 -3 4 -13 1 -22z
m280 3 c-3 -8 -6 -5 -6 6 -1 11 2 17 5 13 3 -3 4 -12 1 -19z m-1064 -44 c-6
-16 -19 -18 -28 -4 -4 7 -13 6 -27 -1 -18 -10 -20 -9 -15 6 4 9 7 19 7 21 0 2
7 4 15 4 8 0 15 7 15 17 0 13 4 12 19 -6 11 -13 17 -29 14 -37z m-826 40 c-3
-3 -12 -4 -19 -1 -8 3 -5 6 6 6 11 1 17 -2 13 -5z m993 -5 c0 -11 -22 -16 -49
-11 -23 5 -24 6 -6 12 24 9 55 8 55 -1z m841 -31 c2 -20 0 -40 -4 -44 -4 -4
-7 14 -7 41 0 56 7 57 11 3z m-1701 11 c0 -5 -4 -9 -8 -9 -5 0 -9 7 -9 15 0 8
4 12 9 9 4 -3 8 -9 8 -15z m1797 -16 c-3 -10 -5 -4 -5 12 0 17 2 24 5 18 2 -7
2 -21 0 -30z m-1840 5 c-3 -8 -6 -5 -6 6 -1 11 2 17 5 13 3 -3 4 -12 1 -19z
m558 -4 c14 -11 16 -18 8 -21 -7 -3 -13 -18 -13 -34 0 -18 -4 -28 -10 -24 -5
3 -10 1 -10 -5 0 -6 -5 -8 -12 -4 -8 5 -6 11 5 19 22 16 23 65 2 65 -8 0 -15
-5 -15 -12 0 -6 -3 -9 -6 -5 -10 10 4 37 18 37 7 0 22 -8 33 -16z m892 -16
c-3 -7 -5 -2 -5 12 0 14 2 19 5 13 2 -7 2 -19 0 -25z m-1264 5 c10 4 15 -1 15
-16 0 -16 -7 -22 -24 -22 -20 0 -24 5 -24 30 0 21 3 26 9 16 5 -8 16 -11 24
-8z m-407 -31 c-1 -34 -3 -37 -26 -34 -14 2 -29 8 -35 14 -7 7 -1 9 18 6 18
-4 27 -1 27 8 0 8 -4 14 -10 14 -18 0 -10 26 8 27 15 1 19 -6 18 -35z m1124
28 c0 -5 -12 -10 -27 -10 -22 0 -25 2 -13 10 20 13 40 13 40 0z m93 -9 c4 -1
6 -14 5 -30 -1 -16 -6 -27 -10 -25 -4 3 -8 -2 -8 -11 0 -9 4 -14 9 -10 5 3 12
1 16 -5 3 -5 -6 -15 -20 -22 -21 -10 -28 -9 -35 2 -10 16 -2 42 11 34 5 -3 9
0 9 5 0 6 -5 11 -10 11 -6 0 -14 10 -19 23 -9 24 2 37 28 32 9 -2 19 -4 24 -4z
m417 -1 c0 -5 -7 -10 -15 -10 -8 0 -15 5 -15 10 0 6 7 10 15 10 8 0 15 -4 15
-10z m267 -27 c-3 -10 -5 -4 -5 12 0 17 2 24 5 18 2 -7 2 -21 0 -30z m-1990
-5 c-3 -7 -5 -2 -5 12 0 14 2 19 5 13 2 -7 2 -19 0 -25z m609 9 c2 -13 -2 -16
-16 -12 -11 3 -29 1 -41 -5 -22 -12 -21 -5 4 28 14 18 50 11 53 -11z m1544 -3
c0 -14 -4 -23 -9 -20 -5 3 -7 15 -4 26 7 28 13 25 13 -6z m-1962 -29 c2 -23
-1 -34 -8 -30 -5 3 -10 22 -10 41 0 46 15 36 18 -11z m592 41 c0 -2 -7 -6 -15
-10 -8 -3 -15 -1 -15 4 0 6 7 10 15 10 8 0 15 -2 15 -4z m280 -18 c0 -16 -3
-19 -11 -11 -6 6 -8 16 -5 22 11 17 16 13 16 -11z m288 -3 c-3 -3 -9 2 -12 12
-6 14 -5 15 5 6 7 -7 10 -15 7 -18z m542 3 c0 -18 -2 -20 -9 -8 -6 8 -7 18 -5
22 9 14 14 9 14 -14z m-683 -17 c0 -26 -3 -29 -19 -20 -11 6 -25 8 -32 6 -6
-3 -13 3 -13 14 -1 11 3 16 12 13 8 -3 22 -1 32 5 10 6 18 11 19 11 0 0 1 -13
1 -29z m621 22 c-10 -2 -26 -2 -35 0 -10 3 -2 5 17 5 19 0 27 -2 18 -5z m219
-25 c-3 -8 -6 -5 -6 6 -1 11 2 17 5 13 3 -3 4 -12 1 -19z m-317 -6 c0 -10 -7
-19 -15 -19 -8 0 -15 9 -15 19 0 10 7 18 15 18 8 0 15 -8 15 -18z m-1480 -31
c3 -2 -3 -1 -12 2 -10 4 -18 2 -18 -4 0 -6 -5 -7 -12 -3 -9 6 -9 9 0 12 10 3
10 7 0 20 -11 15 4 5 42 -27z m241 19 c28 0 23 -17 -6 -22 -22 -5 -25 -2 -24
21 0 14 3 20 6 14 2 -7 13 -13 24 -13z m269 5 c0 -8 -4 -15 -10 -15 -5 0 -10
7 -10 15 0 8 5 15 10 15 6 0 10 -7 10 -15z m-160 -38 c-8 -9 -10 -8 -5 6 4 10
2 17 -4 17 -6 0 -11 -4 -11 -8 0 -4 -9 -8 -19 -9 -27 -2 -16 25 12 29 26 4 44
-19 27 -35z m422 21 c-7 -7 -12 -8 -12 -2 0 14 12 26 19 19 2 -3 -1 -11 -7
-17z m804 -3 c2 -20 -3 -25 -22 -25 -18 0 -22 4 -18 18 4 13 1 12 -14 -5 l-19
-22 -1 27 c0 24 3 27 36 30 33 2 37 -1 38 -23z m-1476 5 c0 -5 -2 -10 -4 -10
-3 0 -8 5 -11 10 -3 6 -1 10 4 10 6 0 11 -4 11 -10z m447 -12 c-3 -8 -6 -5 -6
6 -1 11 2 17 5 13 3 -3 4 -12 1 -19z m1250 0 c-3 -8 -6 -5 -6 6 -1 11 2 17 5
13 3 -3 4 -12 1 -19z m20 0 c-3 -8 -6 -5 -6 6 -1 11 2 17 5 13 3 -3 4 -12 1
-19z m-77 -8 c0 -11 -4 -20 -9 -20 -5 0 -7 9 -4 20 3 11 7 20 9 20 2 0 4 -9 4
-20z m40 -17 c0 -26 -16 -12 -18 15 -1 21 0 23 8 12 5 -8 10 -21 10 -27z
m-1255 -6 c0 -29 -15 -39 -32 -22 -11 12 -11 17 4 34 19 23 27 20 28 -12z
m-425 3 c0 -11 -2 -20 -4 -20 -2 0 -6 9 -9 20 -3 11 -1 20 4 20 5 0 9 -9 9
-20z m690 -15 c0 -20 -5 -25 -24 -25 -13 0 -27 -6 -29 -12 -4 -9 -6 -8 -6 3
-1 8 11 20 27 26 25 10 25 11 5 12 -31 1 -29 21 2 21 20 0 25 -5 25 -25z m685
15 c-3 -5 -14 -10 -23 -10 -15 0 -15 2 -2 10 20 13 33 13 25 0z m390 -30 c-3
-47 -16 -50 -14 -3 2 23 6 40 10 38 4 -3 6 -18 4 -35z m-1602 -8 c3 -15 1 -31
-4 -36 -6 -6 -9 -5 -9 5 0 12 -2 12 -10 -1 -9 -13 -10 -13 -10 0 0 13 -1 13
-10 0 -7 -11 -10 -4 -10 26 0 38 2 41 24 37 16 -3 26 -14 29 -31z m99 6 c-4
-4 -22 -10 -39 -12 -23 -2 -30 0 -26 10 3 8 14 14 24 14 10 0 19 5 19 11 0 8
5 7 15 -1 9 -7 12 -17 7 -22z m1134 -44 c-22 -21 -50 -14 -54 14 -3 18 1 22
21 22 14 0 28 -6 30 -12 3 -7 6 1 8 17 l2 30 4 -28 c3 -16 -2 -33 -11 -43z
m-1426 46 c0 -5 -5 -10 -11 -10 -5 0 -7 5 -4 10 3 6 8 10 11 10 2 0 4 -4 4
-10z m520 0 c0 -5 -7 -10 -15 -10 -8 0 -15 5 -15 10 0 6 7 10 15 10 8 0 15 -4
15 -10z m1000 -2 c0 -4 -13 -8 -30 -8 -16 0 -30 4 -30 9 0 5 14 9 30 9 17 -1
30 -5 30 -10z m207 -25 c-3 -10 -5 -4 -5 12 0 17 2 24 5 18 2 -7 2 -21 0 -30z
m-1697 -9 c0 -8 5 -12 10 -9 11 7 34 -44 24 -54 -4 -3 -9 0 -12 8 -2 7 -13 21
-23 29 -20 18 -25 42 -9 42 6 0 10 -7 10 -16z m409 -9 c6 3 11 2 11 -3 0 -5
-11 -12 -24 -14 -19 -4 -25 0 -29 19 -4 22 -3 23 14 7 10 -9 23 -13 28 -9z
m531 -6 c0 -10 -7 -19 -15 -19 -9 0 -15 9 -15 25 0 18 4 23 15 19 8 -4 15 -15
15 -25z m535 8 c10 -8 15 -19 11 -25 -10 -17 -26 -15 -20 3 4 9 0 15 -10 15
-9 0 -16 -8 -16 -17 0 -13 -3 -14 -12 -5 -8 8 -8 15 2 27 15 18 21 19 45 2z
m74 -10 c0 -9 -2 -8 -6 1 -2 6 -10 9 -15 6 -7 -4 -8 -2 -4 5 9 13 26 5 25 -12z
m-1029 3 c13 -8 13 -11 -2 -27 -17 -16 -18 -16 -18 5 0 13 -6 22 -15 22 -8 0
-15 -7 -15 -17 0 -9 -3 -14 -6 -10 -4 3 -4 13 -1 22 7 17 34 20 57 5z m185 1
c5 -1 4 -6 -3 -13 -18 -18 -52 -17 -62 2 -9 16 -5 17 65 11z m155 -21 c0 -13
-7 -20 -20 -20 -13 0 -20 7 -20 20 0 13 7 20 20 20 13 0 20 -7 20 -20z m-410
0 c0 -5 -5 -10 -11 -10 -5 0 -7 5 -4 10 3 6 8 10 11 10 2 0 4 -4 4 -10z m1187
-22 c-3 -7 -5 -2 -5 12 0 14 2 19 5 13 2 -7 2 -19 0 -25z m120 10 c-3 -8 -6
-5 -6 6 -1 11 2 17 5 13 3 -3 4 -12 1 -19z m-347 -37 c0 -13 -2 -13 -9 -2 -6
9 -11 10 -15 2 -9 -13 -16 -14 -35 -2 -12 8 -12 12 -2 25 10 12 17 13 37 4 13
-6 24 -18 24 -27z m-470 9 c-20 -13 -33 -13 -25 0 3 6 14 10 23 10 15 0 15 -2
2 -10z m-430 -36 c0 -32 -1 -34 -16 -20 -8 9 -20 16 -25 16 -24 0 6 30 39 39
1 1 2 -15 2 -35z m173 29 c-7 -2 -21 -2 -30 0 -10 3 -4 5 12 5 17 0 24 -2 18
-5z m172 -13 c-4 -6 -2 -16 4 -23 6 -8 6 -18 1 -27 -7 -11 -10 -12 -10 -2 0 7
-4 10 -10 7 -5 -3 -10 0 -10 7 0 9 -3 9 -10 -2 -8 -12 -10 -11 -10 7 0 12 8
27 18 32 22 14 35 14 27 1z m271 -15 c1 -8 -2 -17 -7 -21 -5 -3 -9 7 -9 22 0
27 12 26 16 -1z m-866 5 c0 -5 -5 -10 -11 -10 -5 0 -7 5 -4 10 3 6 8 10 11 10
2 0 4 -4 4 -10z m187 -37 c-3 -10 -5 -4 -5 12 0 17 2 24 5 18 2 -7 2 -21 0
-30z m1094 -11 c2 -34 7 -42 23 -42 25 0 19 -5 -15 -13 -29 -7 -27 -15 -20 92
2 28 10 4 12 -37z m-151 28 c0 -6 -16 -10 -36 -10 -19 0 -33 3 -31 8 8 11 67
13 67 2z m-713 -15 c0 -8 -4 -12 -9 -9 -4 3 -8 9 -8 15 0 5 4 9 8 9 5 0 9 -7
9 -15z m570 -17 c-3 -7 -5 -2 -5 12 0 14 2 19 5 13 2 -7 2 -19 0 -25z m217 26
c9 -3 16 -16 15 -28 0 -20 -1 -20 -9 -1 l-9 20 0 -20 c-1 -15 -3 -17 -10 -6
-6 9 -11 10 -15 3 -4 -6 -14 -8 -23 -5 -14 5 -13 9 7 25 25 21 23 20 44 12z
m-439 -14 c3 -5 1 -10 -4 -10 -6 0 -11 5 -11 10 0 6 2 10 4 10 3 0 8 -4 11
-10z m282 -27 c-3 -10 -5 -4 -5 12 0 17 2 24 5 18 2 -7 2 -21 0 -30z m83 -17
c0 -9 -7 -16 -15 -16 -10 0 -15 10 -15 31 0 27 2 29 15 15 8 -8 15 -22 15 -30z
m-1455 24 c12 10 15 10 15 0 0 -9 3 -10 13 -1 9 6 17 7 23 1 5 -5 24 -10 42
-12 17 -1 28 -6 24 -9 -11 -11 -252 -23 -252 -13 0 14 93 41 108 31 7 -6 18
-5 27 3z m571 -28 c-4 -3 -12 0 -19 7 -9 9 -9 14 3 21 11 7 16 5 18 -6 2 -9 1
-18 -2 -22z m519 18 c3 -5 1 -10 -4 -10 -6 0 -11 5 -11 10 0 6 2 10 4 10 3 0
8 -4 11 -10z m695 6 c0 -2 -7 -7 -16 -10 -8 -3 -12 -2 -9 4 6 10 25 14 25 6z
m77 -38 c-3 -7 -5 -2 -5 12 0 14 2 19 5 13 2 -7 2 -19 0 -25z m-1350 0 c-3 -8
-6 -5 -6 6 -1 11 2 17 5 13 3 -3 4 -12 1 -19z m226 -4 c-4 -12 -8 -13 -14 -3
-9 15 -2 32 11 24 5 -3 6 -13 3 -21z m191 17 c10 -15 -5 -41 -23 -41 -26 0
-44 17 -38 34 7 17 52 22 61 7z m566 -33 c0 -10 -3 -9 -10 2 -8 13 -10 13 -10
-1 0 -9 9 -19 20 -22 17 -4 20 0 20 26 0 42 18 22 20 -23 3 -56 2 -59 -35 -66
-19 -3 -33 -10 -30 -14 3 -4 -1 -7 -8 -7 -20 1 -77 -24 -77 -34 0 -5 -7 -9
-16 -9 -14 0 -130 -64 -144 -79 -3 -3 -18 -14 -35 -23 -16 -10 -29 -22 -28
-27 1 -5 -6 -7 -16 -4 -10 3 -22 0 -26 -7 -9 -14 -45 16 -45 37 0 10 -14 13
-54 12 l-54 -2 3 -63 c2 -35 -1 -66 -6 -70 -6 -3 -9 28 -7 83 l3 88 37 1 c21
0 41 4 45 7 4 4 8 33 10 64 4 74 13 81 15 12 1 -43 2 -46 5 -16 2 20 9 37 14
37 5 0 9 -6 8 -12 -3 -29 2 -48 13 -48 6 0 8 3 4 7 -4 4 14 15 41 24 l48 16 0
49 c0 31 -5 54 -15 62 -13 12 -13 13 3 8 10 -3 22 -6 25 -6 4 0 6 -22 5 -50
-1 -27 3 -50 8 -50 5 0 9 7 9 16 0 8 5 12 10 9 22 -13 48 7 58 43 7 26 10 30
11 14 1 -26 25 -39 45 -23 7 6 16 8 19 4 4 -3 7 1 7 11 0 10 5 14 12 10 6 -4
17 1 25 11 7 11 13 13 13 6 0 -7 4 -10 9 -7 5 4 12 0 14 -6 3 -7 6 2 6 20 1
30 3 32 16 18 8 -8 15 -21 15 -28z m-480 12 c0 -14 -7 -20 -24 -20 -23 0 -41
22 -29 34 4 3 17 6 30 6 16 0 23 -6 23 -20z m146 -5 c1 -8 -4 -15 -11 -15 -8
0 -11 7 -8 20 6 22 15 19 19 -5z m64 21 c0 -3 -4 -8 -10 -11 -5 -3 -10 -1 -10
4 0 6 5 11 10 11 6 0 10 -2 10 -4z m30 -6 c0 -5 -2 -10 -4 -10 -3 0 -8 5 -11
10 -3 6 -1 10 4 10 6 0 11 -4 11 -10z m-670 -35 c4 3 3 -6 -3 -20 l-12 -24 -7
22 c-3 12 -7 16 -8 7 -1 -11 -4 -9 -10 5 -8 18 -9 18 -9 2 -1 -10 -5 -16 -10
-12 -5 3 -12 -5 -14 -17 -3 -16 -5 -11 -6 12 -1 32 2 36 27 38 15 1 29 8 32
15 2 6 6 2 8 -11 2 -12 7 -20 12 -17z m787 13 c-3 -8 -6 -5 -6 6 -1 11 2 17 5
13 3 -3 4 -12 1 -19z m-307 -23 c0 -19 -4 -35 -8 -35 -4 0 -6 16 -4 35 2 19 6
35 8 35 2 0 4 -16 4 -35z m26 -10 c-1 -33 -16 -33 -16 0 0 14 4 25 9 25 5 0 8
-11 7 -25z m254 15 c0 -5 -4 -10 -10 -10 -5 0 -10 5 -10 10 0 6 5 10 10 10 6
0 10 -4 10 -10z m-640 -10 c0 -7 6 -7 19 0 27 14 29 13 27 -16 -1 -20 -5 -24
-21 -20 -11 3 -25 6 -32 6 -6 0 -11 9 -10 20 1 20 17 29 17 10z m470 0 c0 -6
-6 -13 -14 -16 -8 -3 -12 -12 -9 -20 3 -8 1 -14 -4 -14 -4 0 -9 14 -9 30 -1
23 3 30 17 30 11 0 19 -5 19 -10z m-250 -24 c0 -8 3 -21 6 -30 4 -12 0 -16
-15 -16 -12 0 -21 6 -22 13 0 6 -4 3 -9 -8 -8 -18 -9 -17 -9 7 -1 16 6 31 17
37 24 14 32 13 32 -3z m97 -38 c-2 -13 -4 -5 -4 17 -1 22 1 32 4 23 2 -10 2
-28 0 -40z m-447 12 c0 -5 -5 -10 -11 -10 -5 0 -7 5 -4 10 3 6 8 10 11 10 2 0
4 -4 4 -10z m520 0 c0 -5 -4 -10 -10 -10 -5 0 -10 5 -10 10 0 6 5 10 10 10 6
0 10 -4 10 -10z m-873 -32 c-3 -7 -5 -2 -5 12 0 14 2 19 5 13 2 -7 2 -19 0
-25z m270 16 c5 -13 7 -13 14 -2 6 8 9 -14 8 -56 -2 -49 -5 -63 -11 -51 -6 9
-7 32 -3 52 4 24 3 33 -4 28 -6 -3 -11 1 -11 9 0 9 -4 16 -10 16 -5 0 -10 -6
-10 -12 0 -9 -4 -8 -10 2 -6 10 -10 11 -10 3 0 -7 -4 -13 -10 -13 -14 0 -12
27 3 33 25 11 48 7 54 -9z m-170 -14 c2 -28 -43 -39 -65 -16 -15 15 -15 18 -2
26 28 18 66 12 67 -10z m803 10 c0 -5 -4 -10 -10 -10 -5 0 -10 5 -10 10 0 6 5
10 10 10 6 0 10 -4 10 -10z m31 3 c-11 -5 -11 -7 0 -14 11 -7 10 -9 -3 -9 -10
0 -18 7 -18 15 0 8 8 15 18 14 12 0 13 -2 3 -6z m-581 -28 c0 -10 -9 -15 -27
-14 -24 2 -25 2 -5 6 12 2 22 9 22 14 0 5 2 9 5 9 3 0 5 -7 5 -15z m450 -21
c0 -20 -28 -36 -50 -29 -24 8 -26 33 -3 50 19 14 53 0 53 -21z m-100 -9 c0 -7
-11 -15 -25 -17 -18 -4 -25 -1 -25 11 0 10 9 17 25 17 14 1 25 -4 25 -11z
m668 -70 c-36 -46 -48 -55 -74 -55 -35 0 -65 -28 -105 -100 -13 -22 -26 -40
-31 -40 -16 0 -7 34 17 66 14 18 25 40 25 48 0 9 5 16 11 16 5 0 7 5 3 12 -4
6 -3 8 4 4 6 -3 13 -2 17 4 3 5 19 10 34 10 30 0 71 31 90 68 6 12 21 22 32
22 17 0 14 -7 -23 -55z m-878 36 c0 -6 -4 -13 -10 -16 -5 -3 -10 1 -10 9 0 9
5 16 10 16 6 0 10 -4 10 -9z m210 -26 c0 -18 -5 -25 -18 -25 -30 0 -33 11 -9
31 28 23 27 24 27 -6z m834 9 c5 -13 4 -14 -7 -6 -10 8 -20 7 -41 -3 -34 -18
-58 -8 -31 12 26 18 71 17 79 -3z m-1438 -55 c1 -23 -2 -27 -12 -18 -8 6 -21
9 -29 5 -11 -4 -15 1 -15 17 0 17 6 22 28 24 23 2 27 -2 28 -28z m420 17 c18
-14 18 -15 -6 -24 -14 -5 -27 -7 -30 -4 -3 2 1 7 8 9 10 4 10 8 1 19 -15 18 2
18 27 0z m946 -8 c16 16 53 15 67 -2 18 -22 4 -86 -19 -86 -10 0 -21 6 -23 13
-3 6 -6 2 -6 -10 -1 -13 7 -24 19 -28 16 -5 19 -12 15 -38 -10 -55 -17 -71
-42 -95 -31 -28 -46 -24 -54 14 -6 28 -7 28 -8 -7 -1 -33 -14 -49 -38 -49 -3
0 -3 26 0 58 4 38 3 47 -2 27 -5 -16 -9 -44 -10 -62 -1 -22 -8 -36 -22 -44
l-22 -11 6 118 c3 70 3 103 -2 80 -12 -55 -55 -78 -64 -33 -3 16 -5 13 -6 -11
-1 -29 3 -33 29 -38 29 -6 30 -9 30 -58 0 -44 -4 -56 -27 -78 -17 -15 -45 -28
-68 -31 -22 -3 -34 -3 -27 0 6 2 12 22 12 43 0 25 5 40 16 44 26 10 32 7 37
-16 4 -16 5 -13 4 7 -2 24 -7 31 -27 34 -32 4 -40 17 -40 64 0 67 41 123 95
129 19 2 43 16 63 38 l33 35 -3 -58 c-2 -31 0 -57 4 -57 6 0 10 16 23 93 6 38
7 38 26 21 15 -13 22 -15 31 -6z m-1120 -10 c12 -9 15 -22 11 -40 -6 -30 -23
-29 -23 2 0 10 -7 20 -15 24 -18 7 -20 26 -2 26 7 0 21 -6 29 -12z m-90 -17
c-11 -7 -10 -9 3 -15 21 -8 10 -26 -15 -26 -13 0 -17 5 -14 15 4 8 1 15 -5 15
-6 0 -11 -5 -11 -12 0 -6 -3 -9 -6 -5 -14 14 7 37 33 37 19 0 24 -3 15 -9z
m35 -13 c-3 -8 -6 -5 -6 6 -1 11 2 17 5 13 3 -3 4 -12 1 -19z m406 7 c7 -16
-8 -29 -23 -20 -10 6 -2 35 10 35 4 0 10 -7 13 -15z m-691 -30 c-2 -14 -9 -25
-14 -25 -6 0 -4 -10 4 -22 10 -15 12 -30 7 -43 -6 -16 -8 -16 -8 -3 -1 12 -7
15 -23 10 -14 -3 -19 -1 -14 6 3 6 1 14 -5 17 -7 5 -1 18 17 36 31 32 25 40
-6 9 -11 -11 -29 -20 -40 -20 -28 0 -25 -17 9 -46 20 -17 27 -30 24 -44 -3
-11 -8 -20 -12 -20 -3 0 -37 -3 -76 -6 l-70 -5 23 20 c20 17 27 41 31 104 1 5
9 6 20 2 25 -8 70 11 98 41 27 29 42 25 35 -11z m-117 15 c-3 -5 -12 -10 -18
-10 -7 0 -21 -13 -30 -30 -19 -32 -68 -51 -127 -49 -31 1 -30 2 13 9 54 10 87
28 114 65 17 23 62 37 48 15z m728 -15 c-7 -21 -13 -19 -13 6 0 11 4 18 10 14
5 -3 7 -12 3 -20z m437 1 c0 -19 -7 -26 -31 -31 -17 -4 -42 -13 -57 -21 -31
-16 -35 -14 -27 19 5 18 18 28 53 40 62 21 62 21 62 -7z m-946 -1 c3 -8 1 -15
-5 -15 -6 0 -7 -4 -4 -10 3 -5 1 -10 -4 -10 -6 0 -11 11 -11 25 0 27 15 34 24
10z m414 6 c22 -14 10 -46 -17 -46 -31 0 -52 31 -31 45 19 12 31 12 48 1z
m119 -43 c-3 -8 -6 -5 -6 6 -1 11 2 17 5 13 3 -3 4 -12 1 -19z m1003 6 c0 -8
-5 -12 -10 -9 -6 4 -8 11 -5 16 9 14 15 11 15 -7z m-1290 -7 c0 -8 -13 -13
-35 -13 -42 0 -47 13 -7 19 15 2 30 5 35 6 4 0 7 -5 7 -12z m347 -9 c-3 -8 -6
-5 -6 6 -1 11 2 17 5 13 3 -3 4 -12 1 -19z m-1036 -16 c-7 -2 -18 1 -23 6 -8
8 -4 9 13 5 13 -4 18 -8 10 -11z m439 8 c0 -5 -4 -10 -10 -10 -5 0 -10 5 -10
10 0 6 5 10 10 10 6 0 10 -4 10 -10z m510 -10 c0 -5 -4 -10 -10 -10 -5 0 -10
5 -10 10 0 6 5 10 10 10 6 0 10 -4 10 -10z m27 -12 c-3 -8 -6 -5 -6 6 -1 11 2
17 5 13 3 -3 4 -12 1 -19z m-123 -19 c-3 -5 -10 -7 -15 -3 -5 3 -7 10 -3 15 3
5 10 7 15 3 5 -3 7 -10 3 -15z m-421 -9 c6 -24 -31 -40 -44 -19 -15 24 -10 39
15 39 15 0 26 -7 29 -20z m247 5 c0 -8 -7 -15 -15 -15 -8 0 -15 7 -15 15 0 8
7 15 15 15 8 0 15 -7 15 -15z m360 -17 c0 -6 -11 -8 -25 -6 -17 4 -29 0 -35
-11 -8 -13 -9 -11 -10 9 0 24 3 26 35 22 19 -2 35 -9 35 -14z m50 2 c0 -11 -4
-20 -10 -20 -5 0 -10 9 -10 20 0 11 5 20 10 20 6 0 10 -9 10 -20z m-512 -12
c9 -9 12 -9 12 2 0 10 3 11 11 3 6 -6 8 -16 5 -22 -10 -16 -50 -7 -54 12 -4
20 9 22 26 5z m-608 -18 c-20 -13 -53 -13 -45 0 3 6 18 10 33 10 21 0 24 -2
12 -10z m725 -11 c4 -6 5 -12 3 -14 -7 -7 -48 7 -48 16 0 13 37 11 45 -2z
m252 -11 c-3 -8 -6 -5 -6 6 -1 11 2 17 5 13 3 -3 4 -12 1 -19z m98 12 c12 -20
-6 -50 -31 -50 -19 0 -24 5 -24 24 0 31 40 50 55 26z m45 -34 c0 -27 -10 -14
-16 20 -3 22 -2 25 6 14 5 -8 10 -24 10 -34z m-685 24 c3 -5 11 -10 16 -10 6
0 7 5 3 12 -4 7 -3 8 4 4 7 -4 12 -16 12 -26 0 -14 -7 -18 -30 -18 -35 1 -43
9 -34 32 7 18 20 21 29 6z m572 -27 c-3 -10 -5 -4 -5 12 0 17 2 24 5 18 2 -7
2 -21 0 -30z m-637 -2 c0 -20 -6 -30 -19 -34 -14 -3 -18 -1 -14 9 3 8 10 14
15 14 6 0 8 6 5 14 -5 12 0 26 10 26 2 0 3 -13 3 -29z m267 -5 c-5 -15 -49
-14 -54 1 -4 12 24 22 45 15 7 -2 11 -10 9 -16z m-107 -6 c0 -5 -5 -10 -11
-10 -5 0 -7 5 -4 10 3 6 8 10 11 10 2 0 4 -4 4 -10z m450 -10 c0 -5 -4 -10 -9
-10 -6 0 -13 5 -16 10 -3 6 1 10 9 10 9 0 16 -4 16 -10z m840 -30 c-11 -22
-25 -40 -30 -40 -5 0 -12 -10 -15 -23 -4 -13 -25 -33 -54 -50 -56 -31 -61 -32
-61 -12 0 9 -6 12 -15 8 -9 -3 -25 3 -36 13 -19 17 -19 19 -2 25 31 13 51 10
56 -8 3 -10 5 -3 6 14 1 28 8 37 53 62 30 18 55 26 58 20 4 -5 14 -1 25 11 30
33 37 23 15 -20z m-1100 19 c0 -5 4 -8 9 -4 5 3 13 0 17 -6 4 -8 3 -9 -5 -5
-6 4 -14 0 -17 -8 -7 -18 -39 -21 -49 -6 -11 18 3 40 25 40 11 0 20 -5 20 -11z
m192 -20 c5 -3 3 -9 -6 -12 -11 -4 -16 -1 -16 10 0 15 -2 15 -18 0 -24 -22
-32 -21 -32 4 0 11 4 17 10 14 5 -3 18 -2 27 4 13 7 19 6 22 -2 2 -7 8 -15 13
-18z m-265 10 c-9 -6 -15 -14 -12 -20 4 -5 -4 -9 -17 -9 l-23 0 25 20 c14 11
30 20 35 19 6 0 2 -4 -8 -10z m-189 -6 c-10 -2 -26 -2 -35 0 -10 3 -2 5 17 5
19 0 27 -2 18 -5z m622 -13 c0 -11 -4 -20 -10 -20 -5 0 -10 6 -10 13 0 8 -4 7
-10 -3 -7 -11 -10 -12 -10 -2 0 10 -4 10 -16 -2 -8 -9 -17 -16 -18 -16 -3 0 0
42 3 48 0 1 17 2 36 2 28 0 35 -4 35 -20z m42 -2 c-6 -6 -16 -7 -22 -3 -9 6
-9 9 1 16 17 10 34 0 21 -13z m-897 -8 c-3 -5 -14 -10 -23 -10 -15 0 -15 2 -2
10 20 13 33 13 25 0z m695 -46 c0 -25 -4 -43 -9 -40 -5 3 -7 15 -4 26 6 22
-12 28 -20 8 -4 -10 -8 -10 -15 1 -8 12 -13 12 -25 2 -13 -10 -15 -8 -13 14 1
23 16 37 16 15 0 -5 14 -10 30 -10 17 0 29 3 29 8 -2 12 1 22 6 22 3 0 5 -21
5 -46z m60 36 c0 -5 -2 -10 -4 -10 -3 0 -8 5 -11 10 -3 6 -1 10 4 10 6 0 11
-4 11 -10z m-450 -30 c0 -11 -4 -20 -9 -20 -5 0 -7 9 -4 20 3 11 7 20 9 20 2
0 4 -9 4 -20z m594 3 c4 -9 0 -23 -8 -32 -14 -13 -15 -11 -13 17 2 35 11 41
21 15z m-624 -3 c0 -5 -4 -10 -9 -10 -5 0 -18 -3 -28 -6 -16 -5 -16 -4 1 10
23 18 36 20 36 6z m125 0 c7 0 16 -7 19 -16 5 -12 2 -15 -10 -10 -9 3 -21 3
-27 -1 -7 -4 -2 -10 13 -14 23 -7 22 -7 -6 -6 -27 1 -31 5 -32 30 -1 22 3 27
14 23 9 -3 22 -6 29 -6z m100 -15 c0 -14 -8 -21 -27 -23 -16 -2 -28 1 -28 7 0
6 9 11 20 11 11 0 20 5 20 11 0 6 -7 9 -15 6 -8 -4 -17 -1 -21 4 -4 7 5 9 22
7 21 -2 29 -8 29 -23z m265 15 c0 -5 -2 -10 -4 -10 -3 0 -8 5 -11 10 -3 6 -1
10 4 10 6 0 11 -4 11 -10z m88 -38 c3 -31 2 -32 -27 -30 -26 2 -31 6 -31 28 0
33 8 42 35 38 15 -2 21 -12 23 -36z m-334 -17 c-8 -32 3 -76 19 -74 30 4 41
-1 29 -13 -8 -8 -20 -5 -50 15 -21 15 -50 27 -65 27 -18 0 -27 5 -27 16 0 11
8 15 28 14 45 -3 52 -1 52 20 0 11 5 20 10 20 6 0 8 -11 4 -25z m127 15 c6 0
7 -4 4 -10 -10 -16 -42 -12 -42 5 0 10 6 14 14 10 8 -3 19 -5 24 -5z m38 -61
c-10 -6 -11 -9 -1 -9 6 0 12 -5 12 -10 0 -6 -17 -10 -40 -8 -22 1 -40 6 -40
11 0 4 -5 5 -10 2 -6 -4 -1 -15 12 -26 l23 -20 -25 7 c-13 4 -33 17 -43 30
-10 13 -25 24 -33 24 -8 0 -13 4 -10 9 6 10 20 9 49 -4 10 -4 23 -2 32 5 9 7
27 10 45 6 20 -4 30 -1 31 7 0 8 2 8 6 -2 3 -7 -1 -17 -8 -22z m127 -1 c20 19
21 19 33 0 25 -40 -10 -76 -42 -43 -8 8 -17 11 -21 8 -3 -4 -6 9 -5 28 1 28 2
30 7 11 7 -23 7 -23 28 -4z m694 18 c0 -3 -4 -8 -10 -11 -5 -3 -10 -1 -10 4 0
6 5 11 10 11 6 0 10 -2 10 -4z m-740 -21 c0 -8 -2 -15 -4 -15 -2 0 -6 7 -10
15 -3 8 -1 15 4 15 6 0 10 -7 10 -15z m1020 5 c0 -5 -5 -10 -11 -10 -5 0 -7 5
-4 10 3 6 8 10 11 10 2 0 4 -4 4 -10z m-249 -47 c-10 -17 -10 -16 -11 3 0 23
13 41 18 25 2 -6 -1 -18 -7 -28z m-1134 11 c-4 -4 1 -20 10 -35 19 -32 12 -49
-12 -29 -18 15 -20 70 -3 70 6 0 8 -3 5 -6z m513 -14 c0 -11 -7 -23 -15 -26
-8 -4 -12 -10 -9 -15 3 -5 1 -9 -5 -9 -5 0 -8 12 -6 28 2 15 4 30 4 35 2 17
31 5 31 -13z m574 5 c-5 -11 -2 -13 12 -8 16 6 16 4 -2 -20 -10 -14 -22 -27
-26 -27 -11 0 -10 28 2 51 13 23 22 26 14 4z m-640 -51 c12 -31 6 -44 -19 -44
-27 0 -41 20 -31 45 7 20 42 19 50 -1z m687 -3 c-8 -15 -7 -20 5 -25 10 -4 13
-13 9 -26 -4 -12 0 -26 10 -36 13 -14 14 -18 3 -25 -8 -6 -23 1 -41 19 l-27
28 17 42 c10 23 22 42 26 42 4 0 3 -9 -2 -19z m-751 -11 c0 -5 -2 -10 -4 -10
-3 0 -8 5 -11 10 -3 6 -1 10 4 10 6 0 11 -4 11 -10z m130 -14 c0 -8 -6 -21
-14 -29 -8 -8 -17 -39 -19 -68 -2 -35 -4 -25 -4 29 0 73 2 82 19 82 10 0 18
-6 18 -14z m485 4 c3 -5 1 -10 -4 -10 -6 0 -11 5 -11 10 0 6 2 10 4 10 3 0 8
-4 11 -10z m75 -5 c0 -8 -2 -15 -4 -15 -2 0 -6 7 -10 15 -3 8 -1 15 4 15 6 0
10 -7 10 -15z m-120 -25 c0 -5 -4 -10 -10 -10 -5 0 -10 5 -10 10 0 6 5 10 10
10 6 0 10 -4 10 -10z m46 -15 c12 -12 12 -15 2 -15 -7 0 -23 -3 -35 -6 -14 -4
-23 -2 -23 5 0 7 4 10 9 7 5 -3 11 1 15 9 7 19 14 19 32 0z m-550 -14 c-3 -5
-15 -7 -26 -4 -28 7 -25 13 6 13 14 0 23 -4 20 -9z m654 -12 c0 -15 -15 -17
-33 -4 -16 11 -15 13 8 13 14 0 25 -4 25 -9z m-92 -58 c0 -20 -3 -30 -5 -23
-4 10 -8 10 -19 1 -12 -10 -12 -7 1 17 10 20 11 30 3 35 -6 4 -7 12 -3 19 12
19 23 -6 23 -49z m-52 12 c-11 -11 -19 6 -11 24 8 17 8 17 12 0 3 -10 2 -21
-1 -24z m114 2 c0 -12 -29 -3 -34 10 -4 13 -2 14 14 5 11 -6 20 -13 20 -15z
m80 -60 c-28 -46 -50 -47 -41 -2 5 22 12 31 23 29 10 -1 20 7 24 20 7 19 8 20
12 5 2 -9 -6 -33 -18 -52z m-100 9 c0 -13 -5 -33 -12 -44 -15 -24 -1 -41 15
-19 9 13 15 14 23 4 19 -19 -9 -48 -38 -40 -13 4 -26 13 -30 19 -9 14 -21 1
-38 -44 -18 -47 -39 -70 -58 -63 -13 4 -14 3 -3 -5 8 -6 11 -17 6 -32 -6 -18
-9 -20 -16 -9 -14 22 -10 59 6 65 8 4 15 14 15 24 0 11 5 22 10 25 6 3 10 11
10 16 0 6 -4 7 -10 4 -6 -4 -10 8 -10 29 0 20 4 36 9 36 5 0 7 -9 4 -21 -5
-16 -2 -20 12 -18 10 2 20 11 22 19 4 13 3 13 -6 0 -8 -11 -11 -12 -11 -2 0
24 20 52 38 52 15 0 15 -2 2 -10 -12 -8 -12 -10 5 -10 15 0 17 -2 6 -9 -7 -5
-10 -14 -7 -20 13 -20 24 -11 22 18 -3 37 11 74 24 66 5 -3 10 -17 10 -31z
m33 1 c-7 -21 -13 -19 -13 6 0 11 4 18 10 14 5 -3 7 -12 3 -20z m194 -7 c-3
-7 -5 -2 -5 12 0 14 2 19 5 13 2 -7 2 -19 0 -25z m-1330 -92 c11 -45 10 -59
-5 -75 -7 -7 -14 -12 -15 -10 -1 2 -7 14 -14 26 -10 17 -10 22 0 26 9 3 9 9 1
28 -14 29 -37 80 -42 94 -3 6 12 -5 31 -24 20 -19 40 -48 44 -65z m328 72 c15
-22 15 -23 -16 -28 -46 -7 -50 -30 -6 -30 30 0 34 -3 30 -19 -3 -11 -14 -28
-25 -38 -16 -14 -20 -14 -16 -3 3 8 -4 19 -16 25 -17 9 -21 20 -21 63 0 50 1
52 27 52 17 0 33 -9 43 -22z m45 -79 c0 -6 -4 -7 -10 -4 -5 3 -10 11 -10 16 0
6 5 7 10 4 6 -3 10 -11 10 -16z m137 -31 c-3 -8 -6 -5 -6 6 -1 11 2 17 5 13 3
-3 4 -12 1 -19z m-393 -51 c-8 -5 -22 -7 -31 -5 -15 3 -15 4 1 20 14 14 20 15
31 5 11 -10 11 -13 -1 -20z m1054 -8 c10 -13 10 -19 -1 -27 -10 -9 -13 -4 -15
20 -2 18 -1 30 1 27 1 -2 8 -11 15 -20z m-1558 -13 c0 -2 -8 -10 -17 -17 -16
-13 -17 -12 -4 4 13 16 21 21 21 13z m1498 -48 c-2 -18 -8 -22 -28 -20 -31 5
-34 7 -27 27 4 8 18 15 32 15 22 0 26 -4 23 -22z m322 -15 c0 -24 -3 -33 -9
-25 -7 12 -4 62 5 62 2 0 4 -17 4 -37z m-1113 21 c-3 -3 -12 -4 -19 -1 -8 3
-5 6 6 6 11 1 17 -2 13 -5z m723 -12 c0 -13 -41 -54 -48 -48 -3 4 5 17 18 31
25 27 30 30 30 17z m65 -67 c0 -21 -4 -23 -25 -18 -33 7 -47 21 -29 27 8 2 21
7 29 9 24 9 25 8 25 -18z m-78 -28 c-5 -16 -37 -21 -50 -8 -18 18 11 43 35 30
10 -6 17 -16 15 -22z m79 -45 c0 -13 -8 -19 -26 -19 -18 0 -26 6 -26 19 0 13
8 18 26 18 18 0 26 -5 26 -18z m-86 -21 c0 -24 -23 -33 -46 -17 -22 16 -10 36
22 36 17 0 24 -6 24 -19z m-143 -53 c-3 -7 -5 -2 -5 12 0 14 2 19 5 13 2 -7 2
-19 0 -25z m228 -3 c0 -20 -4 -24 -20 -19 -34 11 -40 23 -14 33 34 14 34 14
34 -14z m-90 -15 c3 -5 -1 -10 -9 -10 -9 0 -16 5 -16 10 0 6 4 10 9 10 6 0 13
-4 16 -10z"/>
<path d="M565 1900 c-3 -5 1 -10 10 -10 9 0 13 5 10 10 -3 6 -8 10 -10 10 -2
0 -7 -4 -10 -10z"/>
<path d="M1790 1870 c0 -5 7 -10 15 -10 8 0 15 5 15 10 0 6 -7 10 -15 10 -8 0
-15 -4 -15 -10z"/>
<path d="M1262 1658 c6 -18 28 -21 28 -4 0 9 -7 16 -16 16 -9 0 -14 -5 -12
-12z"/>
<path d="M640 1530 c0 -5 9 -10 21 -10 11 0 17 5 14 10 -3 6 -13 10 -21 10 -8
0 -14 -4 -14 -10z"/>
<path d="M2035 1310 c-4 -23 -5 -43 -2 -46 2 -3 7 14 11 37 4 23 5 44 2 46 -2
2 -7 -14 -11 -37z"/>
<path d="M2020 1225 c0 -18 4 -22 19 -18 13 3 21 -1 24 -14 3 -13 5 -11 6 7 1
17 -7 28 -24 37 -23 10 -25 9 -25 -12z"/>
<path d="M1090 1305 c0 -9 6 -12 15 -9 8 4 15 10 15 15 0 5 -7 9 -15 9 -8 0
-15 -7 -15 -15z"/>
<path d="M1265 890 c4 -6 11 -8 16 -5 14 9 11 15 -7 15 -8 0 -12 -5 -9 -10z"/>
<path d="M1260 810 c0 -5 7 -10 15 -10 8 0 15 5 15 10 0 6 -7 10 -15 10 -8 0
-15 -4 -15 -10z"/>
<path d="M1811 534 c0 -11 3 -14 6 -6 3 7 2 16 -1 19 -3 4 -6 -2 -5 -13z"/>
<path d="M1080 600 c0 -5 4 -10 9 -10 6 0 13 5 16 10 3 6 -1 10 -9 10 -9 0
-16 -4 -16 -10z"/>
<path d="M1780 210 c0 -5 9 -10 20 -10 11 0 20 5 20 10 0 6 -9 10 -20 10 -11
0 -20 -4 -20 -10z"/>
<path d="M1563 2236 c3 -7 0 -19 -6 -26 -9 -10 -9 -11 2 -5 11 6 13 4 8 -8 -3
-10 -2 -17 3 -17 6 0 10 16 10 35 0 19 -5 35 -11 35 -6 0 -9 -6 -6 -14z"/>
<path d="M560 1730 c0 -5 7 -10 15 -10 8 0 15 5 15 10 0 6 -7 10 -15 10 -8 0
-15 -4 -15 -10z"/>
<path d="M506 741 c-3 -4 -23 -11 -43 -15 -25 -4 -46 -17 -60 -35 l-23 -29 21
-23 c14 -17 19 -19 15 -7 -3 11 -1 15 8 12 7 -3 25 11 40 31 15 19 35 35 44
35 9 0 23 4 31 9 11 7 10 11 -7 20 -11 6 -23 7 -26 2z m-66 -45 c0 -2 -7 -9
-15 -16 -13 -11 -14 -10 -9 4 5 14 24 23 24 12z"/>
<path d="M383 622 c3 -15 2 -20 -6 -15 -7 4 -18 8 -25 9 -11 2 -11 -1 1 -14
28 -33 30 -46 2 -22 l-28 25 13 -25 c12 -22 12 -24 -2 -12 -11 9 -18 10 -23 2
-3 -5 -1 -10 5 -10 7 0 10 -6 7 -12 -2 -7 -11 -12 -21 -10 -9 2 -16 -2 -16 -7
0 -12 -82 -10 -91 2 -3 4 -22 1 -42 -8 -20 -8 -37 -13 -37 -10 0 3 -13 -8 -30
-25 -20 -20 -39 -30 -60 -30 -21 0 -30 -5 -30 -16 0 -13 6 -15 27 -10 l28 7
-25 -21 c-20 -16 -21 -19 -5 -13 18 6 19 5 6 -11 -8 -10 -16 -25 -17 -34 -1
-10 -5 -26 -10 -37 -7 -18 11 -1 56 53 6 6 34 12 63 12 52 0 134 30 149 53 5
8 11 6 22 -8 14 -19 15 -19 9 5 -3 14 -3 22 1 18 4 -3 16 2 27 13 21 21 45 16
52 -9 3 -12 5 -9 6 6 0 13 6 20 11 17 15 -10 12 6 -4 19 -12 9 -13 20 -4 64 9
41 8 56 -2 65 -10 10 -12 7 -7 -11z m-17 -97 c-1 -30 -2 -31 -17 -4 -8 15 -8
19 0 15 6 -4 11 -2 11 3 0 6 2 11 4 11 2 0 3 -11 2 -25z m-176 -5 c0 -5 -5
-10 -11 -10 -5 0 -7 5 -4 10 3 6 8 10 11 10 2 0 4 -4 4 -10z m51 -63 c-10 -9
-11 -8 -5 6 3 10 9 15 12 12 3 -3 0 -11 -7 -18z m-111 -17 c-20 -13 -33 -13
-25 0 3 6 14 10 23 10 15 0 15 -2 2 -10z"/>
<path d="M292 605 c-12 -14 -18 -25 -14 -25 10 0 45 41 39 46 -2 2 -13 -7 -25
-21z"/>
<path d="M1150 425 c0 -8 5 -15 10 -15 6 0 10 7 10 15 0 8 -4 15 -10 15 -5 0
-10 -7 -10 -15z"/>
<path d="M336 391 c-10 -11 -32 -23 -49 -27 -26 -5 -28 -8 -13 -16 12 -6 22
-6 32 3 21 17 27 6 8 -17 -8 -10 -12 -13 -8 -5 4 9 3 12 -4 7 -6 -4 -9 -13 -6
-21 4 -8 9 -13 13 -10 4 2 8 -8 8 -23 0 -15 8 -46 19 -70 l19 -43 37 31 36 30
-19 50 c-10 28 -23 58 -28 68 -5 9 -13 27 -18 40 l-8 24 -19 -21z"/>
<path d="M211 319 c-9 -15 -15 -18 -20 -10 -8 13 -41 5 -41 -10 0 -5 -8 -9
-17 -9 -17 -1 -17 -1 -1 -11 13 -7 28 -4 58 11 22 11 40 16 40 12 0 -5 -45
-30 -99 -55 -55 -25 -102 -50 -105 -55 -3 -5 3 -35 14 -66 19 -57 50 -111 50
-88 0 7 4 11 9 8 12 -8 23 23 14 37 -4 7 1 6 10 -2 12 -9 17 -10 17 -2 0 7 5
9 10 6 6 -3 10 -1 10 4 0 6 -9 11 -20 11 -14 0 -20 7 -20 22 0 21 0 21 15 2
11 -15 15 -16 15 -4 0 8 7 3 16 -13 14 -26 16 -27 44 -12 35 18 34 15 15 62
-19 45 -19 63 0 63 12 0 13 5 4 26 -7 20 -6 31 4 43 13 16 12 51 -1 51 -4 0
-13 -10 -21 -21z m-77 -154 c3 -8 1 -15 -4 -15 -6 0 -10 7 -10 15 0 8 2 15 4
15 2 0 6 -7 10 -15z"/>
<path d="M1018 333 c7 -3 16 -2 19 1 4 3 -2 6 -13 5 -11 0 -14 -3 -6 -6z"/>
<path d="M537 312 c-9 -10 -17 -25 -17 -33 0 -12 -2 -12 -9 0 -11 17 -32 5
-24 -14 4 -11 1 -13 -11 -9 -10 4 -18 -1 -23 -12 -8 -22 -64 -78 -78 -79 -19
-1 -56 -26 -51 -34 5 -8 -67 -45 -89 -47 -26 -1 -56 -17 -65 -35 -6 -10 -19
-19 -29 -19 -10 0 -24 -7 -31 -15 -11 -13 -8 -15 19 -15 33 0 101 24 111 39 3
5 37 25 77 45 40 20 87 51 105 69 l34 33 -4 -34 c-3 -24 -7 -30 -13 -21 -6 10
-9 5 -9 -16 0 -18 -3 -25 -8 -18 -6 10 -19 7 -55 -9 -40 -18 -47 -26 -47 -50
0 -28 22 -39 35 -18 3 6 1 10 -4 10 -6 0 -11 9 -11 20 0 11 7 20 15 20 8 0 15
-7 15 -15 0 -44 74 16 89 72 6 21 11 45 11 55 0 9 23 36 51 60 43 37 49 47 42
66 -9 23 -9 23 -26 4z m-70 -104 c-3 -8 -6 -5 -6 6 -1 11 2 17 5 13 3 -3 4
-12 1 -19z"/>
<path d="M85 266 c-30 -22 -12 -29 26 -11 19 8 26 13 17 11 -9 -3 -18 0 -20 5
-2 5 -12 3 -23 -5z"/>
<path d="M800 213 c-36 -26 -34 -27 13 -4 15 8 27 18 27 23 0 11 0 11 -40 -19z"/>
<path d="M251 185 c0 -5 6 -21 14 -35 8 -14 14 -20 14 -15 0 6 -6 21 -14 35
-8 14 -14 21 -14 15z"/>
</g>
</svg>
